<svg id="Ebene_1" data-name="Ebene 1" xmlns="http://www.w3.org/2000/svg" viewBox="0 0 1500 211.27"><defs><style>.cls-1{fill:#008e87;}.cls-2{fill:#8bb824;}</style></defs><title>communiversity</title><path class="cls-1" d="M853.83,56.86h16.35l33.49,83.52,32.9-83.52h16.36L910.68,157.51h-14Z"/><path class="cls-1" d="M1131.69,54.53v13c-22.77,0-38.93,14-38.93,33.68v56.26h-14.6V56.86h14.6V76.53C1098.79,63.09,1113.2,54.53,1131.69,54.53Z"/><path class="cls-1" d="M1138.1,130.13l10.94-5.78c3.71,18.24,19.76,23.23,30.61,23.23,14.18,0,25.41-7.3,25.41-16.84,0-10.9-12.83-13.64-27.33-19.48-23.21-9.33-36.39-15.51-36.39-27.93,0-17.2,17.16-29.08,38.63-28.95,14.59.09,29.22,3.67,39,21.17l-10.61,6.06c-7-12-17.3-14.65-27.17-14.75-11.49-.12-24.58,4.57-24.67,15.42-.07,8.31,9,10.46,28.34,18,16.12,6.3,34.67,11,34.67,28.57,0,18.5-17.51,31.36-39.83,31.22C1159.75,160,1143.35,151,1138.1,130.13Z"/><path class="cls-1" d="M1331.09,153.43a30.62,30.62,0,0,1-18.69,6.42c-14.4,0-24.53-10.71-24.53-25.7V69.91H1272.1v-13h15.77V29.22h14.6V56.86h24.73v13h-24.73v64.24c0,7.4,5.07,12.66,10.91,12.66a14.52,14.52,0,0,0,10.51-4.09Z"/><path class="cls-1" d="M1346.55,189.25l3.51-12.46a26.53,26.53,0,0,0,11.87,2.53c6.43,0,10.71-2.14,14.61-9l5.83-12.46-43.8-101h16.16L1390,140.58l33.29-83.72H1439l-46,112c-7,17.13-16.74,23.55-30.56,23.75A38.44,38.44,0,0,1,1346.55,189.25Z"/><path class="cls-2" d="M103.15,66.42q23,0,36.31,17.67l10.27-6.38a43.19,43.19,0,0,0-11-12.49,53.72,53.72,0,0,0-15.77-8,61.6,61.6,0,0,0-19.29-3,59,59,0,0,0-28.77,7A51.81,51.81,0,0,0,54.68,80.81,52.62,52.62,0,0,0,47.32,108a49.34,49.34,0,0,0,15.73,36.91Q78.77,160,102.64,160a62,62,0,0,0,27.71-6,48.41,48.41,0,0,0,19.38-16.86l-10.27-6.75q-14,17.67-36.22,17.67a44.62,44.62,0,0,1-21.85-5.36,39.23,39.23,0,0,1-15.34-15.06A40.78,40.78,0,0,1,60.46,107,38.61,38.61,0,0,1,72.61,78.25Q84.76,66.43,103.15,66.42Z"/><path class="cls-2" d="M212.22,54.21q-23.35,0-38.65,16.93a52.3,52.3,0,0,0-13.9,36.26q0,21.09,14.69,36.87T212.22,160q23.07,0,37.76-15.77t14.69-36.87a52.35,52.35,0,0,0-13.9-36.35Q235.49,54.21,212.22,54.21Zm34,73.82A37.5,37.5,0,0,1,232,142.6a40.61,40.61,0,0,1-39.55,0A37.45,37.45,0,0,1,178.1,128a40.89,40.89,0,0,1-5.29-20.35,39.89,39.89,0,0,1,11.6-28.86Q196,66.88,212.17,66.88t27.71,11.94a39.78,39.78,0,0,1,11.66,28.86A40.9,40.9,0,0,1,246.24,128Z"/><path class="cls-1" d="M683.91,103.8q0,18.87-1.95,24.7a26.76,26.76,0,0,1-10.42,13.73q-7.56,5.24-18.39,5.23a32.19,32.19,0,0,1-18.67-5.37,26.34,26.34,0,0,1-10.61-14.61Q622,121,622,103.8v-47H609.07v48.48q0,21.45,4.85,32.14a36.72,36.72,0,0,0,14.71,16.65q9.86,6,24.56,6t24.47-6a37,37,0,0,0,14.62-16.51q4.86-10.55,4.85-31.36V56.8H683.91Z"/><path class="cls-2" d="M572.2,60.18q-9.86-6-24.56-6t-24.47,6a36.92,36.92,0,0,0-13,13.45,36.51,36.51,0,0,0-13.05-13.45q-9.85-6-24.57-6t-24.46,6a36.84,36.84,0,0,0-13,13.45A36.54,36.54,0,0,0,422,60.18q-9.86-6-24.56-6t-24.47,6a36.84,36.84,0,0,0-13,13.45,36.46,36.46,0,0,0-13.06-13.45q-9.86-6-24.56-6t-24.47,6a37.14,37.14,0,0,0-14.61,16.51q-4.86,10.55-4.86,31.36v49.4h13.23v-47q0-18.87,1.94-24.7A26.77,26.77,0,0,1,304,72q7.55-5.23,18.39-5.23A32.19,32.19,0,0,1,341,72.16a26.36,26.36,0,0,1,10.6,14.61q1.86,6.48,1.86,23.69v47H366.7v-47q0-18.87,1.94-24.7A26.75,26.75,0,0,1,379.06,72q7.56-5.23,18.39-5.23a32.19,32.19,0,0,1,18.67,5.37,26.37,26.37,0,0,1,10.61,14.61q1.86,6.48,1.85,23.69v47h13.23v-47q0-18.87,1.95-24.7A26.69,26.69,0,0,1,454.18,72q7.54-5.23,18.39-5.23a32.19,32.19,0,0,1,18.67,5.37,26.42,26.42,0,0,1,10.61,14.61q1.84,6.48,1.85,23.69v47h13.23v-47q0-18.87,1.94-24.7A26.71,26.71,0,0,1,529.3,72q7.55-5.23,18.39-5.23a32.16,32.16,0,0,1,18.66,5.37A26.37,26.37,0,0,1,577,86.77q1.86,6.48,1.86,23.69v47h12.95V109q0-21.47-4.86-32.15A36.82,36.82,0,0,0,572.2,60.18Z"/><path class="cls-1" d="M830.17,15.36a10.17,10.17,0,0,0-7.46,3.14,10.37,10.37,0,0,0-3.13,7.59,10.22,10.22,0,0,0,3.13,7.49,10.14,10.14,0,0,0,7.46,3.15,10.72,10.72,0,0,0,10.68-10.64,10.37,10.37,0,0,0-3.13-7.59A10.29,10.29,0,0,0,830.17,15.36Z"/><rect class="cls-1" x="823.74" y="56.8" width="12.95" height="100.65"/><path class="cls-1" d="M1033.63,138.52a39.33,39.33,0,0,1-12.37,7.1,43,43,0,0,1-15,2.67,35.76,35.76,0,0,1-26.77-11.21q-10.85-11.22-11.21-28.75h90.57q-.2-20.62-11.11-34.41-15.37-19.53-41.11-19.52-25,0-39.91,19.05A53.81,53.81,0,0,0,955,107.59q0,20.35,13.89,36.49t38.52,16.15a55.27,55.27,0,0,0,19.91-3.38,49.39,49.39,0,0,0,15.83-9.85,59.61,59.61,0,0,0,12.41-17l-10.92-5.74Q1038.72,134.1,1033.63,138.52Zm-52.24-62.2a36.91,36.91,0,0,1,25.47-9.53,40.17,40.17,0,0,1,17.14,3.8,35.52,35.52,0,0,1,13.1,10q5,6.19,7.55,16.55h-75Q973.61,83.26,981.39,76.32Z"/><path class="cls-1" d="M1245.94,15.36a10.2,10.2,0,0,0-7.47,3.14,10.37,10.37,0,0,0-3.13,7.6,10.22,10.22,0,0,0,3.13,7.49,10.18,10.18,0,0,0,7.47,3.15,10.72,10.72,0,0,0,10.69-10.64,10.37,10.37,0,0,0-3.13-7.6A10.31,10.31,0,0,0,1245.94,15.36Z"/><rect class="cls-1" x="1239.51" y="56.83" width="12.96" height="100.72"/><path class="cls-1" d="M782.66,60.29q-9.85-6-24.56-6t-24.47,6A37.11,37.11,0,0,0,719,76.81q-4.86,10.55-4.86,31.36v49.4h13.23v-47q0-18.87,1.94-24.7a26.73,26.73,0,0,1,10.43-13.73q7.54-5.23,18.39-5.23a32.23,32.23,0,0,1,18.66,5.36,26.4,26.4,0,0,1,10.61,14.62q1.86,6.48,1.86,23.68v47h13V109.09q0-21.47-4.86-32.14A36.8,36.8,0,0,0,782.66,60.29Z"/></svg>