<?xml version="1.0" encoding="utf-8"?><svg version="1.1" id="Ebene_1" xmlns="http://www.w3.org/2000/svg"  x="0px" y="0px"  viewBox="0 0 764.6 86.5" style="enable-background:new 0 0 764.6 86.5;" xml:space="preserve"><style type="text/css"> .st0{fill:#8DB91C;}</style><g> <path class="st0" d="M33.4,30.5c9.2,0,16.4,3.5,21.7,10.6l6.1-3.8c-1.8-3-4-5.5-6.6-7.5c-2.6-2-5.7-3.5-9.4-4.8  c-3.7-1.2-7.5-1.8-11.5-1.8c-6.3,0-12.1,1.4-17.2,4.2c-5.1,2.8-9.2,6.7-12.1,11.7C1.5,44.1,0,49.5,0,55.4c0,8.7,3.1,16,9.4,22.1  c6.3,6,14.2,9.1,23.7,9.1c6.2,0,11.7-1.2,16.6-3.6c4.8-2.4,8.7-5.7,11.6-10.1l-6.1-4c-5.6,7-12.8,10.6-21.7,10.6  c-4.8,0-9.2-1.1-13.1-3.2c-3.9-2.1-6.9-5.1-9.2-9c-2.2-3.9-3.3-8-3.3-12.4c0-6.7,2.4-12.5,7.3-17.2C20,32.9,26,30.5,33.4,30.5z"/> <path class="st0" d="M98.6,23.2c-9.3,0-17,3.4-23.1,10.1c-5.5,6.1-8.3,13.3-8.3,21.7c0,8.4,2.9,15.8,8.8,22  c5.9,6.3,13.4,9.4,22.6,9.4c9.2,0,16.7-3.1,22.6-9.4c5.9-6.3,8.8-13.6,8.8-22c0-8.4-2.8-15.6-8.3-21.7  C115.5,26.6,107.8,23.2,98.6,23.2z M118.9,67.4c-2.1,3.8-5,6.7-8.5,8.7c-3.6,2-7.5,3.1-11.8,3.1c-4.3,0-8.2-1-11.8-3.1  c-3.6-2-6.4-4.9-8.5-8.7c-2.1-3.8-3.2-7.8-3.2-12.2c0-6.7,2.3-12.5,6.9-17.3c4.6-4.8,10.2-7.1,16.6-7.1c6.4,0,11.9,2.4,16.6,7.1  c4.6,4.8,7,10.5,7,17.3C122.1,59.5,121,63.6,118.9,67.4z"/> <path class="st0" d="M386.4,52.9c0,7.5-0.4,12.4-1.2,14.8c-1.1,3.4-3.2,6.1-6.2,8.2c-3,2.1-6.7,3.1-11,3.1c-4.3,0-8-1.1-11.2-3.2  c-3.1-2.1-5.2-5-6.3-8.7c-0.7-2.6-1.1-7.3-1.1-14.2V24.8h-7.7v29c0,8.6,1,15,2.9,19.2c1.9,4.3,4.9,7.6,8.8,10  c3.9,2.4,8.8,3.6,14.7,3.6c5.9,0,10.7-1.2,14.6-3.6c3.9-2.4,6.8-5.7,8.7-9.9s2.9-10.5,2.9-18.7V24.8h-7.9V52.9z"/> <path class="st0" d="M447.9,26.8c-3.9-2.4-8.8-3.6-14.7-3.6c-5.9,0-10.7,1.2-14.6,3.6c-3.9,2.4-6.8,5.7-8.7,9.9S407,47.1,407,55.4  v29.5h7.9V56.8c0-7.5,0.4-12.4,1.2-14.8c1.1-3.4,3.2-6.1,6.2-8.2c3-2.1,6.7-3.1,11-3.1c4.3,0,8,1.1,11.2,3.2c3.1,2.1,5.2,5,6.3,8.7  c0.7,2.6,1.1,7.3,1.1,14.2v28.1h7.7V56c0-8.6-1-15-2.9-19.2C454.8,32.5,451.8,29.2,447.9,26.8z"/> <path class="st0" d="M316.3,26.8c-3.9-2.4-8.8-3.6-14.7-3.6c-5.9,0-10.7,1.2-14.6,3.6c-3.3,2-5.9,4.7-7.8,8c-1.9-3.3-4.5-6-7.8-8  c-3.9-2.4-8.8-3.6-14.7-3.6c-5.9,0-10.7,1.2-14.6,3.6c-3.3,2-5.9,4.7-7.8,8c-1.9-3.3-4.5-6-7.8-8c-3.9-2.4-8.8-3.6-14.7-3.6  c-5.9,0-10.7,1.2-14.6,3.6c-3.3,2-5.9,4.7-7.8,8c-1.9-3.3-4.5-6-7.8-8c-3.9-2.4-8.8-3.6-14.7-3.6c-5.9,0-10.7,1.2-14.6,3.6  c-3.9,2.4-6.8,5.7-8.7,9.9s-2.9,10.5-2.9,18.7v29.5h7.9V56.8c0-7.5,0.4-12.4,1.2-14.8c1.1-3.4,3.2-6.1,6.2-8.2  c3-2.1,6.7-3.1,11-3.1c4.3,0,8,1.1,11.2,3.2c3.1,2.1,5.2,5,6.3,8.7c0.7,2.6,1.1,7.3,1.1,14.2v28.1h7.7h0.2V56.8  c0-7.5,0.4-12.4,1.2-14.8c1.1-3.4,3.2-6.1,6.2-8.2c3-2.1,6.7-3.1,11-3.1c4.3,0,8,1.1,11.2,3.2c3.1,2.1,5.2,5,6.3,8.7  c0.7,2.6,1.1,7.3,1.1,14.2v28.1h7.7h0.2V56.8c0-7.5,0.4-12.4,1.2-14.8c1.1-3.4,3.2-6.1,6.2-8.2c3-2.1,6.7-3.1,11-3.1  c4.3,0,8,1.1,11.2,3.2c3.1,2.1,5.2,5,6.3,8.7c0.7,2.6,1.1,7.3,1.1,14.2v28.1h7.7h0.2V56.8c0-7.5,0.4-12.4,1.2-14.8  c1.1-3.4,3.2-6.1,6.2-8.2c3-2.1,6.7-3.1,11-3.1c4.3,0,8,1.1,11.2,3.2c3.1,2.1,5.2,5,6.3,8.7c0.7,2.6,1.1,7.3,1.1,14.2v28.1h7.7V56  c0-8.6-1-15-2.9-19.2C323.1,32.5,320.2,29.2,316.3,26.8z"/> <path class="st0" d="M477.2,0c-1.7,0-3.2,0.6-4.5,1.9c-1.2,1.3-1.9,2.8-1.9,4.5c0,1.7,0.6,3.2,1.9,4.5c1.2,1.3,2.7,1.9,4.5,1.9  c1.8,0,3.3-0.6,4.5-1.9c1.2-1.3,1.9-2.7,1.9-4.5c0-1.8-0.6-3.3-1.9-4.5C480.4,0.6,478.9,0,477.2,0z"/> <rect x="473.3" y="24.8" class="st0" width="7.7" height="60.2"/> <path class="st0" d="M525.1,30.5c9.2,0,16.4,3.5,21.7,10.6l6.1-3.8c-1.8-3-4-5.5-6.6-7.5c-2.6-2-5.7-3.5-9.4-4.8  c-3.7-1.2-7.5-1.8-11.5-1.8c-6.3,0-12.1,1.4-17.2,4.2c-5.1,2.8-9.2,6.7-12.1,11.7c-2.9,5-4.4,10.4-4.4,16.2c0,8.7,3.1,16,9.4,22.1  c6.3,6,14.2,9.1,23.7,9.1c6.2,0,11.7-1.2,16.6-3.6c4.8-2.4,8.7-5.7,11.6-10.1l-6.1-4c-5.6,7-12.8,10.6-21.7,10.6  c-4.8,0-9.2-1.1-13.1-3.2c-3.9-2.1-6.9-5.1-9.2-9c-2.2-3.9-3.3-8-3.3-12.4c0-6.7,2.4-12.5,7.3-17.2  C511.7,32.9,517.8,30.5,525.1,30.5z"/> <path class="st0" d="M591.1,23.2c-9.3,0-17,3.4-23.1,10.1c-5.5,6.1-8.3,13.3-8.3,21.7c0,8.4,2.9,15.8,8.8,22  c5.9,6.3,13.4,9.4,22.6,9.4c9.2,0,16.7-3.1,22.6-9.4c5.9-6.3,8.8-13.6,8.8-22c0-8.4-2.8-15.6-8.3-21.7  C608,26.6,600.4,23.2,591.1,23.2z M611.4,67.4c-2.1,3.8-5,6.7-8.5,8.7c-3.6,2-7.5,3.1-11.8,3.1c-4.3,0-8.2-1-11.8-3.1  c-3.6-2-6.4-4.9-8.5-8.7c-2.1-3.8-3.2-7.8-3.2-12.2c0-6.7,2.3-12.5,6.9-17.3c4.6-4.8,10.2-7.1,16.6-7.1c6.4,0,11.9,2.4,16.6,7.1  c4.6,4.8,7,10.5,7,17.3C614.6,59.5,613.5,63.6,611.4,67.4z"/> <path class="st0" d="M749.5,73.5c-2,1.8-4.5,3.2-7.4,4.2c-2.9,1.1-5.9,1.6-8.9,1.6c-6.3,0-11.7-2.2-16-6.7s-6.6-10.2-6.7-17.2h54.1  c-0.1-8.2-2.3-15.1-6.6-20.6c-6.1-7.8-14.3-11.7-24.6-11.7c-10,0-17.9,3.8-23.9,11.4c-4.7,6-7,12.8-7,20.4c0,8.1,2.8,15.4,8.3,21.8  c5.5,6.4,13.2,9.6,23,9.6c4.4,0,8.4-0.7,11.9-2c3.5-1.3,6.7-3.3,9.5-5.9c2.8-2.6,5.3-6,7.4-10.2l-6.5-3.4  C753.7,68.9,751.5,71.8,749.5,73.5z M718.3,36.3c4.2-3.8,9.3-5.7,15.2-5.7c3.6,0,7,0.8,10.2,2.3c3.2,1.5,5.9,3.5,7.8,6  c2,2.5,3.5,5.8,4.5,9.9h-44.8C712.8,43.2,715.2,39.1,718.3,36.3z"/> <path class="st0" d="M684.2,34.1c-0.2-0.3-0.4-0.5-0.7-0.8c-6.1-6.7-13.8-10.1-23-10.1c-9.3,0-17,3.4-23.1,10.1  c-5.5,6.1-8.3,13.3-8.3,21.7c0,8.4,2.9,15.8,8.8,22c5.9,6.3,13.4,9.4,22.6,9.4c9.2,0,16.7-3.1,22.6-9.4c5.9-6.3,8.8-13.6,8.8-22  V1.5h-7.6V34.1z M680.8,67.4c-2.1,3.8-5,6.7-8.5,8.7c-3.6,2-7.5,3.1-11.8,3.1c-4.3,0-8.2-1-11.8-3.1c-3.6-2-6.4-4.9-8.5-8.7  c-2.1-3.8-3.2-7.8-3.2-12.2c0-6.7,2.3-12.5,6.9-17.3c4.6-4.8,10.2-7.1,16.6-7.1c6.4,0,11.9,2.4,16.6,7.1c4.6,4.8,7,10.5,7,17.3  C684,59.5,683,63.6,680.8,67.4z"/></g></svg>